<svg width="596" height="309" viewBox="0 0 596 309" fill="none" xmlns="http://www.w3.org/2000/svg">
<rect width="596" height="309" fill="white"/>
<path d="M115.167 188.667C108.723 188.667 103.5 193.89 103.5 200.333C103.5 206.777 108.723 212 115.167 212C121.61 212 126.833 206.777 126.833 200.333C126.833 193.89 121.61 188.667 115.167 188.667ZM115.167 188.667C115.044 186.205 115.183 189 115.167 188.667ZM115.167 188.667L115.167 134.5M115.167 188.667C115.803 177.428 119.719 170.969 125 166.312C137.991 154.857 159.239 154.306 160.222 120.333M160.222 120.333C166.64 120.303 171.833 115.091 171.833 108.667C171.833 102.223 166.61 97 160.167 97C153.723 97 148.5 102.223 148.5 108.667C148.5 115.11 153.723 120.333 160.167 120.333C160.185 120.333 160.204 120.333 160.222 120.333Z" stroke="black" stroke-width="6" stroke-linecap="round" stroke-linejoin="bevel"/>
<path d="M197.137 129.502H211.915C214.178 129.502 216.441 129.997 216.441 131.411C216.441 132.613 214.32 133.25 212.905 133.25C210.713 133.25 208.945 134.452 208.945 136.502V150.008C208.945 151.635 209.723 152.271 211.138 152.271H228.533C231.149 152.271 231.432 151.069 231.432 150.15V136.856C231.432 135.442 230.795 133.179 229.098 133.179C228.25 133.179 227.613 132.189 227.613 131.411C227.613 129.714 229.876 129.502 231.856 129.502H242.958C244.725 129.502 246.281 130.421 246.281 131.482C246.281 132.825 244.513 133.32 242.746 133.32C240.129 133.32 238.856 135.018 238.856 136.785V171.434C238.856 173.485 240.271 175.04 242.604 175.04C244.301 175.04 246.281 175.323 246.281 176.949C246.281 178.01 244.372 179 242.604 179H226.128C224.856 179 223.795 178.151 223.795 176.949C223.795 175.677 225.846 175.04 227.755 175.04C229.381 175.04 231.432 173.202 231.432 171.505V158.352C231.432 156.584 230.442 155.877 228.533 155.877H211.208C209.228 155.877 208.804 157.15 208.804 158.635V170.02C208.804 171.717 209.158 175.04 210.713 175.04C211.703 175.04 212.552 175.677 212.552 176.737C212.552 178.151 210.43 179 208.663 179H198.197C196.43 179 194.025 178.293 194.025 176.949C194.025 175.535 195.864 175.04 197.632 175.04C200.884 175.04 201.592 172.353 201.592 170.09V137.492C201.592 134.735 200.107 133.32 197.702 133.32C196.076 133.32 193.955 132.825 193.955 131.341C193.955 130.209 195.864 129.502 197.137 129.502ZM249.449 166.979C251.359 164.716 253.692 166.696 254.894 164.363C254.894 162.736 255.743 161.534 258.005 161.534C262.602 161.393 263.379 160.049 264.228 159.13C265.218 158.352 266.774 153.544 264.864 149.938C264.511 148.594 258.005 147.251 255.955 149.372C254.541 150.857 255.743 154.251 254.187 155.453C253.904 156.302 251.641 157.009 250.015 156.867C248.954 156.867 247.682 156.726 246.904 156.019C246.338 155.665 246.055 154.746 246.479 153.897C246.762 153.261 247.257 152.554 248.671 152.554C249.732 152.059 250.51 152.059 250.51 150.433C250.51 149.372 251.076 148.594 252.843 148.311C253.833 148.099 254.894 147.18 254.894 146.119C254.965 145.129 255.884 144.351 258.005 144.069C258.854 143.856 264.228 143.786 265.077 144.069C266.632 144.422 267.976 145.059 267.976 146.19C267.976 147.251 269.036 148.241 269.743 148.311C271.653 148.311 272.36 150.22 272.36 152.2V170.868C272.36 172 272.643 173.272 273.774 174.121C275.4 174.757 276.602 175.182 276.602 176.313C276.673 177.02 275.613 178.646 273.633 178.646H255.53C253.268 178.646 251.076 178.434 249.661 176.454C248.742 174.899 247.54 170.02 249.449 166.979ZM255.035 170.09C255.035 173.838 257.44 174.474 259.773 174.474C262.036 174.474 265.571 173.697 265.571 170.161C265.571 167.333 265.006 165.777 260.41 165.777C256.803 165.777 255.035 166.413 255.035 170.09ZM285.707 145.341C285.707 146.968 287.262 147.604 288.464 147.604C289.596 147.604 290.939 146.543 290.939 145.483C290.939 143.786 293.343 143.079 295.535 143.079C298.859 143.079 300.627 145.2 300.627 147.604C300.627 149.513 298.505 152.13 295.606 152.13C291.434 152.13 289.242 154.534 289.242 156.231V166.767C289.242 168.323 289.101 170.373 287.899 170.373C286.838 170.373 285.848 171.363 285.848 172.495C285.848 173.555 287.616 174.899 289.313 174.899H292.212C293.98 174.899 295.535 175.818 295.535 177.232C295.535 178.151 294.899 179 292.636 179H279.413C277.787 179 275.878 178.717 275.878 177.232C275.878 176.101 277.15 174.899 278.777 174.899C280.262 174.899 281.11 172.495 281.11 170.656V155.948C281.11 154.039 279.767 152.2 278.353 152.2C276.726 152.2 276.019 151.14 276.019 149.938C276.019 148.665 276.868 147.604 278.494 147.604C280.05 147.604 281.11 146.685 281.11 145.341C281.11 142.159 285.707 142.301 285.707 145.341ZM312.128 143.998H322.664C324.149 143.998 325.634 142.442 325.492 140.674V129.573C325.492 128.795 324.219 126.532 323.229 126.532C322.169 126.532 321.179 125.542 321.179 124.482C321.179 123.562 322.452 122.077 324.785 122.077H330.371C332.068 122.077 333.978 122.997 334.048 125.825C334.048 127.31 333.978 128.795 333.978 130.28C333.978 130.846 333.836 135.23 331.927 135.371C330.583 135.512 329.452 137.705 329.593 140.392L329.735 166.908C329.735 168.04 330.654 169.949 331.927 170.09C332.917 170.09 334.048 170.868 334.048 172.282C334.048 173.272 335.109 174.545 336.099 174.545C337.655 174.545 338.15 175.182 338.15 176.384C338.15 177.162 337.089 178.788 332.21 178.788H308.097C305.127 178.788 304.137 177.727 304.067 176.525C304.067 175.606 303.006 174.545 302.228 174.545C300.814 174.545 299.895 172.707 299.895 171.08V155.807C299.895 154.322 300.743 152.554 302.087 152.554C302.865 152.554 304.137 151.918 304.137 150.362C304.137 149.16 304.844 148.17 306.188 148.17C306.895 148.17 308.239 147.533 308.239 146.543C308.239 145.129 309.936 143.998 312.128 143.998ZM308.451 156.302V166.413C308.451 169.242 310.077 170.02 310.714 170.02C311.703 170.02 312.552 170.939 312.552 172.07C312.552 173.555 315.098 174.545 316.583 174.545H322.31C324.361 174.545 325.422 173.06 325.422 171.08V156.726C325.422 155.382 324.856 152.837 323.3 152.766C321.745 152.695 321.179 151.705 321.179 150.645C321.179 149.16 319.835 148.877 318.987 148.594C318.209 148.382 316.37 148.311 314.886 148.594C313.825 148.877 312.693 149.796 312.693 150.433C312.693 150.928 312.198 152.837 310.714 152.837C309.441 152.837 308.451 154.675 308.451 156.302ZM358.026 129.502H389.351C392.887 129.502 393.311 131.553 393.311 133.533C393.311 139.26 397.059 137.634 397.059 142.159C397.059 144.281 396.069 144.846 394.867 144.846C390.483 144.846 389.563 143.22 389.563 140.674C389.563 138.624 388.573 137.21 387.513 137.21C386.664 137.21 385.674 136.502 385.674 135.512C385.674 134.028 384.048 133.462 382.775 133.462H372.168C370.896 133.462 370.33 134.593 370.33 136.007V153.12C370.33 154.534 371.886 156.302 373.3 156.302H375.563C376.552 156.302 378.037 155.17 378.037 154.322C378.037 153.12 378.815 152.554 379.805 152.554C380.795 152.554 381.856 151.564 381.856 150.715C381.856 149.231 382.634 148.665 383.694 148.665C385.745 148.665 385.674 150.503 385.674 152.413V160.827C385.674 162.241 385.533 164.151 383.553 164.151C382.634 164.151 381.856 163.161 381.856 162.241C381.856 161.251 380.442 160.12 378.957 160.12H373.3C371.249 160.12 370.33 161.888 370.33 163.443V172.212C370.33 173.838 371.603 175.394 375.421 175.394C376.765 175.394 377.967 176.03 377.967 177.374C377.967 178.364 376.835 179 375.563 179H359.37C357.743 179 357.46 178.01 357.46 177.02C357.46 175.606 358.875 175.394 360.006 175.394C361.35 175.394 362.693 173.626 362.693 171.858V136.927C362.693 133.533 360.077 133.32 358.238 133.32C356.824 133.32 355.127 132.543 355.127 131.482C355.127 130.209 356.47 129.502 358.026 129.502ZM416.739 143.644C429.679 143.644 432.437 152.837 432.437 162.1C432.437 166.696 431.659 170.585 430.104 170.585C429.326 170.585 428.124 172.424 428.124 174.333C428.124 177.586 425.437 178.293 422.891 179C420.699 179.424 410.517 179.354 409.314 179C407.405 178.576 405.991 177.798 405.991 176.808C405.991 176.242 405.143 175.182 404.435 175.182C403.021 175.182 400.617 173.202 400.617 171.363C400.476 169.949 400.122 168.464 399.344 167.191C398.496 165.565 397.081 165.989 397.081 163.302V160.615C397.081 160.049 397.435 157.079 399.273 157.079C399.981 157.079 401.466 155.877 401.466 154.322V152.271C401.466 150.715 402.455 148.311 406.274 148.311C408.112 148.382 410.517 147.392 410.517 145.978C410.517 144.917 412.002 143.644 416.739 143.644ZM405.991 159.201V164.292C406.062 172.141 409.88 174.899 414.194 174.899H417.588C420.982 174.899 423.952 169.949 423.952 165.565V159.837C423.952 152.625 421.265 148.311 415.679 148.311H413.769C409.527 148.311 406.274 150.008 405.991 159.201ZM441.562 145.341C441.562 146.968 443.117 147.604 444.319 147.604C445.451 147.604 446.794 146.543 446.794 145.483C446.794 143.786 449.198 143.079 451.391 143.079C454.714 143.079 456.482 145.2 456.482 147.604C456.482 149.513 454.36 152.13 451.461 152.13C447.289 152.13 445.097 154.534 445.097 156.231V166.767C445.097 168.323 444.956 170.373 443.754 170.373C442.693 170.373 441.703 171.363 441.703 172.495C441.703 173.555 443.471 174.899 445.168 174.899H448.067C449.835 174.899 451.391 175.818 451.391 177.232C451.391 178.151 450.754 179 448.491 179H435.268C433.642 179 431.733 178.717 431.733 177.232C431.733 176.101 433.006 174.899 434.632 174.899C436.117 174.899 436.965 172.495 436.965 170.656V155.948C436.965 154.039 435.622 152.2 434.208 152.2C432.581 152.2 431.874 151.14 431.874 149.938C431.874 148.665 432.723 147.604 434.349 147.604C435.905 147.604 436.965 146.685 436.965 145.341C436.965 142.159 441.562 142.301 441.562 145.341ZM463.599 121.865C466.215 121.865 467.276 124.411 467.276 129.926V145.483C467.276 147.816 467.417 152.625 465.508 152.625C463.104 152.625 463.387 156.867 465.72 156.867H470.953C473.64 156.867 475.973 152.059 475.902 149.301C475.902 143.998 478.731 143.644 483.681 143.644C487.358 143.644 487.641 145.129 487.641 148.948C487.641 151.705 485.944 152.625 482.903 152.625C478.943 152.483 475.902 156.655 475.902 160.615C475.902 167.262 481.842 174.616 487.004 174.616C489.267 174.616 491.176 174.616 491.176 176.667C491.176 177.727 490.398 179 488.418 179H479.226C475.69 179 475.902 175.182 475.902 173.414C475.902 171.434 474.913 168.676 473.215 167.403C471.872 166.555 468.619 164.928 465.932 166.484C464.659 167.12 463.811 168.676 463.811 170.797C463.811 172.495 465.932 174.616 468.054 174.616C469.538 174.616 470.953 175.04 470.953 176.879C470.953 178.434 469.609 179 468.054 179H459.144C457.73 179 455.891 178.434 455.891 176.667C455.891 175.747 456.528 174.757 457.518 174.757C458.79 174.757 459.851 170.797 459.851 168.535V136.432C459.851 134.523 459.497 130.563 457.73 130.633C456.245 130.633 455.75 129.573 455.75 128.229C455.75 127.169 456.528 126.249 457.942 126.249C461.407 126.249 458.013 121.865 463.599 121.865Z" fill="black"/>
</svg>
