<svg width="685" height="1320" viewBox="0 0 685 1320" fill="none" xmlns="http://www.w3.org/2000/svg">
<path fill-rule="evenodd" clip-rule="evenodd" d="M685 0H6V1044.47L342.66 1316H348.34L685 1044.47V0Z" fill="white"/>
<path d="M283.058 722.884C265.353 722.884 251 737.237 251 754.942C251 772.647 265.353 787 283.058 787C300.763 787 315.116 772.647 315.116 754.942C315.116 737.237 300.763 722.884 283.058 722.884ZM283.058 722.884C282.72 716.12 283.104 723.8 283.058 722.884ZM283.058 722.884L283.058 574.043M283.058 722.884C284.805 692.002 295.567 674.254 310.078 661.458C345.775 629.98 404.162 628.468 406.862 535.116M406.862 535.116C424.498 535.034 438.768 520.712 438.768 503.058C438.768 485.353 424.415 471 406.71 471C389.005 471 374.652 485.353 374.652 503.058C374.652 520.763 389.005 535.116 406.71 535.116C406.761 535.116 406.812 535.116 406.862 535.116Z" stroke="black" stroke-width="6" stroke-linecap="round" stroke-linejoin="bevel"/>
<path d="M177.413 99.402H213.718C219.277 99.402 224.836 100.618 224.836 104.092C224.836 107.045 219.624 108.609 216.15 108.609C210.765 108.609 206.422 111.562 206.422 116.599V149.778C206.422 153.774 208.333 155.337 211.807 155.337H254.54C260.968 155.337 261.663 152.384 261.663 150.126V117.468C261.663 113.994 260.099 108.435 255.93 108.435C253.846 108.435 252.282 106.003 252.282 104.092C252.282 99.9232 257.841 99.402 262.705 99.402H289.978C294.32 99.402 298.142 101.66 298.142 104.266C298.142 107.566 293.799 108.782 289.456 108.782C283.029 108.782 279.902 112.952 279.902 117.294V202.413C279.902 207.451 283.377 211.272 289.109 211.272C293.278 211.272 298.142 211.967 298.142 215.962C298.142 218.568 293.452 221 289.109 221H248.634C245.507 221 242.902 218.915 242.902 215.962C242.902 212.836 247.939 211.272 252.63 211.272C256.625 211.272 261.663 206.756 261.663 202.587V170.276C261.663 165.933 259.231 164.196 254.54 164.196H211.981C207.117 164.196 206.075 167.323 206.075 170.971V198.939C206.075 203.108 206.944 211.272 210.765 211.272C213.197 211.272 215.282 212.836 215.282 215.441C215.282 218.915 210.07 221 205.728 221H180.018C175.676 221 169.769 219.263 169.769 215.962C169.769 212.488 174.286 211.272 178.629 211.272C186.619 211.272 188.356 204.671 188.356 199.112V119.031C188.356 112.257 184.708 108.782 178.802 108.782C174.807 108.782 169.596 107.566 169.596 103.919C169.596 101.139 174.286 99.402 177.413 99.402ZM305.925 191.469C310.615 185.91 316.348 190.774 319.301 185.042C319.301 181.046 321.385 178.093 326.944 178.093C338.235 177.746 340.146 174.445 342.231 172.187C344.663 170.276 348.484 158.464 343.794 149.605C342.926 146.304 326.944 143.004 321.907 148.215C318.432 151.863 321.385 160.201 317.564 163.154C316.869 165.239 311.31 166.976 307.315 166.628C304.709 166.628 301.582 166.281 299.671 164.544C298.282 163.675 297.587 161.417 298.629 159.332C299.324 157.769 300.54 156.032 304.014 156.032C306.62 154.816 308.531 154.816 308.531 150.821C308.531 148.215 309.92 146.304 314.263 145.609C316.695 145.088 319.301 142.83 319.301 140.224C319.475 137.792 321.733 135.881 326.944 135.187C329.029 134.665 342.231 134.492 344.315 135.187C348.137 136.055 351.437 137.619 351.437 140.398C351.437 143.004 354.043 145.436 355.78 145.609C360.47 145.609 362.208 150.299 362.208 155.163V201.023C362.208 203.803 362.902 206.929 365.682 209.014C369.677 210.577 372.63 211.62 372.63 214.399C372.804 216.136 370.198 220.131 365.334 220.131H320.864C315.306 220.131 309.92 219.61 306.446 214.746C304.188 210.925 301.235 198.939 305.925 191.469ZM319.648 199.112C319.648 208.319 325.554 209.882 331.287 209.882C336.846 209.882 345.531 207.972 345.531 199.286C345.531 192.338 344.142 188.516 332.85 188.516C323.991 188.516 319.648 190.079 319.648 199.112ZM394.996 138.313C394.996 142.309 398.817 143.872 401.77 143.872C404.55 143.872 407.85 141.266 407.85 138.661C407.85 134.492 413.756 132.755 419.142 132.755C427.306 132.755 431.649 137.966 431.649 143.872C431.649 148.562 426.437 154.99 419.315 154.99C409.066 154.99 403.681 160.896 403.681 165.065V190.948C403.681 194.77 403.334 199.807 400.381 199.807C397.775 199.807 395.343 202.239 395.343 205.019C395.343 207.624 399.686 210.925 403.855 210.925H410.977C415.32 210.925 419.142 213.183 419.142 216.657C419.142 218.915 417.578 221 412.019 221H379.535C375.54 221 370.85 220.305 370.85 216.657C370.85 213.878 373.977 210.925 377.972 210.925C381.62 210.925 383.704 205.019 383.704 200.502V164.37C383.704 159.68 380.404 155.163 376.93 155.163C372.934 155.163 371.197 152.558 371.197 149.605C371.197 146.478 373.282 143.872 377.277 143.872C381.099 143.872 383.704 141.614 383.704 138.313C383.704 130.496 394.996 130.844 394.996 138.313ZM459.903 135.013H485.786C489.434 135.013 493.082 131.191 492.734 126.848V99.5757C492.734 97.6649 489.607 92.1061 487.175 92.1061C484.57 92.1061 482.138 89.6742 482.138 87.0685C482.138 84.8103 485.265 81.1623 490.997 81.1623H504.72C508.889 81.1623 513.579 83.4206 513.753 90.369C513.753 94.017 513.579 97.6649 513.579 101.313C513.579 102.703 513.232 113.473 508.542 113.82C505.241 114.167 502.462 119.553 502.809 126.154L503.157 191.295C503.157 194.075 505.415 198.765 508.542 199.112C510.974 199.112 513.753 201.023 513.753 204.497C513.753 206.929 516.359 210.056 518.791 210.056C522.612 210.056 523.828 211.62 523.828 214.573C523.828 216.484 521.223 220.479 509.237 220.479H450.001C442.705 220.479 440.273 217.873 440.1 214.92C440.1 212.662 437.494 210.056 435.583 210.056C432.109 210.056 429.851 205.54 429.851 201.544V164.023C429.851 160.375 431.935 156.032 435.236 156.032C437.146 156.032 440.273 154.469 440.273 150.647C440.273 147.694 442.01 145.262 445.311 145.262C447.048 145.262 450.349 143.698 450.349 141.266C450.349 137.792 454.518 135.013 459.903 135.013ZM450.87 165.239V190.079C450.87 197.028 454.865 198.939 456.428 198.939C458.86 198.939 460.945 201.197 460.945 203.976C460.945 207.624 467.199 210.056 470.846 210.056H484.917C489.955 210.056 492.56 206.408 492.56 201.544V166.281C492.56 162.98 491.171 156.727 487.349 156.553C483.527 156.379 482.138 153.947 482.138 151.342C482.138 147.694 478.837 146.999 476.753 146.304C474.842 145.783 470.325 145.609 466.677 146.304C464.072 146.999 461.292 149.257 461.292 150.821C461.292 152.037 460.076 156.727 456.428 156.727C453.302 156.727 450.87 161.243 450.87 165.239ZM185.878 307.402H262.832C271.518 307.402 272.56 312.44 272.56 317.304C272.56 331.374 281.767 327.379 281.767 338.496C281.767 343.708 279.335 345.097 276.382 345.097C265.612 345.097 263.354 341.102 263.354 334.848C263.354 329.811 260.922 326.337 258.316 326.337C256.231 326.337 253.799 324.599 253.799 322.167C253.799 318.52 249.804 317.13 246.677 317.13H220.621C217.494 317.13 216.104 319.909 216.104 323.383V365.422C216.104 368.896 219.926 373.239 223.4 373.239H228.959C231.391 373.239 235.039 370.459 235.039 368.375C235.039 365.422 236.949 364.032 239.381 364.032C241.813 364.032 244.419 361.6 244.419 359.515C244.419 355.867 246.33 354.478 248.936 354.478C253.973 354.478 253.799 358.994 253.799 363.685V384.356C253.799 387.83 253.452 392.521 248.588 392.521C246.33 392.521 244.419 390.089 244.419 387.83C244.419 385.398 240.945 382.619 237.297 382.619H223.4C218.362 382.619 216.104 386.962 216.104 390.783V412.324C216.104 416.319 219.231 420.141 228.611 420.141C231.912 420.141 234.865 421.704 234.865 425.005C234.865 427.437 232.086 429 228.959 429H189.179C185.183 429 184.489 426.568 184.489 424.136C184.489 420.662 187.963 420.141 190.742 420.141C194.043 420.141 197.343 415.798 197.343 411.455V325.642C197.343 317.304 190.916 316.782 186.399 316.782C182.925 316.782 178.756 314.872 178.756 312.266C178.756 309.139 182.057 307.402 185.878 307.402ZM330.114 342.144C361.904 342.144 368.678 364.727 368.678 387.483C368.678 398.774 366.768 408.328 362.946 408.328C361.035 408.328 358.082 412.845 358.082 417.535C358.082 425.526 351.481 427.263 345.227 429C339.842 430.042 314.828 429.869 311.875 429C307.185 427.958 303.71 426.047 303.71 423.615C303.71 422.225 301.626 419.62 299.889 419.62C296.414 419.62 290.508 414.756 290.508 410.239C290.161 406.765 289.292 403.117 287.381 399.99C285.297 395.995 281.823 397.037 281.823 390.436V383.835C281.823 382.445 282.691 375.149 287.208 375.149C288.945 375.149 292.593 372.196 292.593 368.375V363.337C292.593 359.515 295.025 353.609 304.405 353.609C308.922 353.783 314.828 351.351 314.828 347.877C314.828 345.271 318.476 342.144 330.114 342.144ZM303.71 380.361V392.868C303.884 412.15 313.264 418.925 323.861 418.925H332.199C340.537 418.925 347.833 406.765 347.833 395.995V381.924C347.833 364.206 341.232 353.609 327.509 353.609H322.819C312.396 353.609 304.405 357.778 303.71 380.361ZM391.094 346.313C391.094 350.309 394.916 351.872 397.869 351.872C400.648 351.872 403.949 349.266 403.949 346.661C403.949 342.492 409.855 340.755 415.24 340.755C423.404 340.755 427.747 345.966 427.747 351.872C427.747 356.562 422.536 362.99 415.414 362.99C405.165 362.99 399.779 368.896 399.779 373.065V398.948C399.779 402.77 399.432 407.807 396.479 407.807C393.873 407.807 391.441 410.239 391.441 413.019C391.441 415.624 395.784 418.925 399.953 418.925H407.075C411.418 418.925 415.24 421.183 415.24 424.657C415.24 426.915 413.676 429 408.118 429H375.634C371.638 429 366.948 428.305 366.948 424.657C366.948 421.878 370.075 418.925 374.07 418.925C377.718 418.925 379.803 413.019 379.803 408.502V372.37C379.803 367.68 376.502 363.163 373.028 363.163C369.033 363.163 367.295 360.558 367.295 357.605C367.295 354.478 369.38 351.872 373.375 351.872C377.197 351.872 379.803 349.614 379.803 346.313C379.803 338.496 391.094 338.844 391.094 346.313ZM445.231 288.641C451.658 288.641 454.264 294.895 454.264 308.444V346.661C454.264 352.393 454.611 364.206 449.921 364.206C444.015 364.206 444.71 374.628 450.442 374.628H463.297C469.898 374.628 475.63 362.816 475.457 356.041C475.457 343.013 482.405 342.144 494.565 342.144C503.598 342.144 504.293 345.792 504.293 355.173C504.293 361.947 500.124 364.206 492.654 364.206C482.926 363.858 475.457 374.107 475.457 383.835C475.457 400.164 490.048 418.23 502.729 418.23C508.288 418.23 512.978 418.23 512.978 423.268C512.978 425.873 511.067 429 506.204 429H483.621C474.935 429 475.457 419.62 475.457 415.277C475.457 410.413 473.025 403.638 468.856 400.511C465.555 398.427 457.564 394.431 450.963 398.253C447.836 399.816 445.752 403.638 445.752 408.849C445.752 413.019 450.963 418.23 456.175 418.23C459.823 418.23 463.297 419.272 463.297 423.789C463.297 427.61 459.996 429 456.175 429H434.287C430.813 429 426.296 427.61 426.296 423.268C426.296 421.009 427.86 418.577 430.292 418.577C433.418 418.577 436.024 408.849 436.024 403.291V324.426C436.024 319.736 435.156 310.008 430.813 310.181C427.165 310.181 425.949 307.576 425.949 304.275C425.949 301.67 427.86 299.411 431.334 299.411C439.846 299.411 431.508 288.641 445.231 288.641Z" fill="black"/>
<path d="M170.776 827.449H176.897C188.785 827.449 189.963 832.628 189.963 840.28C189.963 850.05 195.26 843.105 195.26 852.404C195.26 864.528 200.792 853.699 200.792 869.237C200.792 884.304 206.089 875.593 206.089 881.596C206.089 885.481 211.622 888.07 211.622 878.889C211.622 867.824 217.036 876.417 217.036 865.941C217.036 854.758 222.098 863.94 222.098 852.639C222.098 843.458 227.866 851.109 227.866 837.455C227.866 831.687 231.162 827.449 239.284 827.449C244.934 827.449 249.407 827.684 249.407 830.627C249.407 832.158 248.465 833.335 247.053 833.335C244.816 833.335 241.991 836.513 241.991 842.398V893.014C241.991 903.137 245.64 904.432 250.584 904.432C253.056 904.432 254.822 904.785 254.822 906.669C254.822 908.788 253.527 909.847 251.761 909.847H225.041C223.628 909.847 222.333 909.023 222.333 907.611C222.333 905.374 223.981 904.785 225.629 904.785C231.632 904.785 233.163 898.782 233.163 893.956V856.641C233.163 853.463 232.692 846.283 230.573 846.283C229.043 846.283 227.748 849.108 227.748 853.699C227.748 861.585 222.216 856.641 222.216 865.705C222.216 876.064 217.154 868.295 217.154 878.771C217.154 888.424 211.386 881.243 211.386 893.367V897.605C211.386 901.136 211.151 903.373 209.503 903.373C208.326 903.373 207.148 904.668 207.148 906.433C207.148 907.846 206.795 909.612 204.677 909.612C201.969 909.612 201.851 902.784 201.851 900.077C201.851 897.605 200.557 894.309 199.144 894.309C197.025 894.309 196.319 889.13 196.319 886.54V881.361C196.319 878.654 195.26 875.24 193.847 875.24C191.493 875.24 190.904 871.12 190.904 868.295C190.904 865.941 190.316 862.174 188.55 862.174C187.02 862.174 184.783 861.821 184.783 859.231V853.699C184.783 851.462 183.959 846.518 182.076 846.518C180.546 846.518 179.133 851.462 179.133 855.464V893.956C179.133 897.958 181.37 904.55 185.372 904.55C189.374 904.55 189.963 905.374 189.963 907.493C189.963 909.023 189.374 909.847 186.196 909.847H167.127C163.478 909.847 163.124 909.023 163.124 907.493C163.124 905.374 164.655 904.668 168.304 904.668C171.482 904.668 173.836 897.958 173.836 893.132V843.458C173.836 839.573 172.188 833.688 167.715 833.688C165.832 833.688 163.124 832.158 163.124 830.274C163.124 828.155 167.833 827.449 170.776 827.449ZM266.93 858.525C269.167 858.76 272.934 857.112 272.934 854.876C272.934 852.286 277.877 850.991 281.644 850.991C287.53 850.991 292.591 853.463 294.592 855.111C296.947 857.112 302.479 861.468 302.244 874.534C302.244 878.183 300.125 880.419 296.005 880.419C288.001 880.419 273.287 880.301 271.639 880.655C267.283 881.008 265.635 882.656 265.871 885.716C266.93 895.486 271.756 901.843 277.642 902.314C281.88 902.784 285.999 902.549 288.471 901.843C295.063 899.842 292.474 898.194 296.711 895.957C299.536 894.545 300.949 895.486 301.655 897.723C302.008 899.135 302.597 901.49 302.479 903.02C302.008 907.257 299.536 910.318 292.238 909.965C290.119 909.729 283.998 911.142 283.998 913.496C283.998 915.144 283.41 917.263 282.115 917.263C280.938 917.263 280.114 915.85 280.114 913.261C280.114 911.73 277.171 910.318 273.64 910.082C253.864 909.847 251.392 885.245 258.455 865.47C259.397 862.527 261.398 858.643 266.93 858.525ZM272.934 865.47C272.698 869.001 275.994 873.71 280.938 873.121C286.353 872.415 287.53 870.414 287.53 866.058C287.53 860.761 285.646 858.407 278.348 858.643C275.876 858.643 272.816 861.35 272.934 865.47ZM310.873 849.814C312.521 849.814 314.405 851.109 314.405 853.11C314.405 854.523 314.052 855.7 316.641 855.7C322.998 855.7 316.406 850.991 330.413 850.991C341.831 850.991 337.712 858.054 346.658 857.936C355.251 857.936 345.951 850.991 361.96 850.991C372.672 850.991 381.147 859.349 381.147 874.416V900.195C381.147 902.549 383.737 903.255 385.62 903.255C388.327 903.255 389.622 905.139 389.622 906.669C389.622 908.199 388.327 909.847 386.326 909.847H368.67C366.315 909.847 363.373 908.67 363.373 906.551C363.373 905.492 364.785 903.255 368.199 903.255C371.612 903.255 372.907 898.664 372.907 891.249V874.298C372.907 865.47 366.198 861.35 361.96 861.35C352.661 861.468 348.659 871.12 348.659 878.771V893.132C348.659 900.195 351.013 903.608 354.427 903.608C356.899 903.608 357.722 905.021 357.722 906.551C357.722 908.199 356.781 909.847 354.427 909.847H335.828C333.474 909.847 332.768 908.435 332.768 906.669C332.768 905.139 333.945 903.373 335.828 903.373C339.713 903.373 339.83 895.722 339.83 889.954V876.77C339.83 871.591 335.24 861.468 325.94 861.468C318.642 861.468 316.523 871.12 316.523 878.183V892.426C316.523 895.722 316.994 903.608 319.937 903.608C321.938 903.608 322.762 904.668 322.762 906.787C322.762 908.435 321.585 909.847 319.231 909.847H304.752C302.751 909.847 301.339 908.199 301.339 906.787C301.339 905.021 302.398 903.491 304.517 903.491C307.46 903.491 308.637 894.78 308.637 889.954V875.475C308.637 871.826 307.224 865.47 304.635 865.47C302.987 865.47 301.456 863.94 301.456 861.821C301.456 860.055 302.869 858.054 305.341 858.054C307.46 858.054 307.46 854.287 307.46 852.639C307.46 850.991 308.755 849.814 310.873 849.814ZM390.804 829.45C387.861 829.45 385.742 825.683 388.803 822.27C389.038 821.21 392.687 820.269 394.335 818.738C396.336 817.208 397.514 815.913 400.927 815.56C404.458 814.972 408.343 816.502 408.696 820.504C408.932 822.27 408.696 837.572 408.932 845.93C408.932 848.637 410.815 850.991 414.935 850.991H423.175C443.303 850.756 446.011 867.471 446.952 875.24C447.305 877.123 447.776 883.009 446.952 886.069C445.657 890.542 442.008 893.25 441.538 899.606C440.949 904.197 437.535 906.669 431.297 909.258C422.586 912.319 409.756 911.142 399.279 910.082C394.571 909.141 394.571 907.022 394.571 902.314V835.571C394.453 834.041 393.511 829.45 390.804 829.45ZM408.696 875.946L408.814 895.133C409.049 898.9 411.05 900.783 414.111 900.783C424.469 900.783 428.236 900.901 430.237 899.724C432.356 898.429 433.18 896.663 433.769 894.191C434.239 892.308 436.358 891.719 436.829 888.659C437.182 885.128 437.3 883.951 437.065 880.184C436.947 878.771 436.005 875.358 435.417 874.416C434.004 872.65 431.65 870.649 431.179 868.059C430.944 866.882 428.354 865.234 426.353 865.234C424.469 865.234 422.939 863.351 422.821 860.761C422.704 859.349 419.761 856.406 414.935 859.584C413.405 860.644 410.933 863.351 407.99 864.175C405.4 864.881 404.576 870.296 406.342 871.826C408.343 873.003 408.696 874.063 408.696 875.946ZM458.372 858.525C460.609 858.76 464.375 857.112 464.375 854.876C464.375 852.286 469.319 850.991 473.086 850.991C478.972 850.991 484.033 853.463 486.034 855.111C488.389 857.112 493.921 861.468 493.686 874.534C493.686 878.183 491.567 880.419 487.447 880.419C479.443 880.419 464.729 880.301 463.081 880.655C458.725 881.008 457.077 882.656 457.313 885.716C458.372 895.486 463.198 901.843 469.084 902.314C473.322 902.784 477.441 902.549 479.913 901.843C486.505 899.842 483.916 898.194 488.153 895.957C490.978 894.545 492.391 895.486 493.097 897.723C493.45 899.135 494.039 901.49 493.921 903.02C493.45 907.257 490.978 910.318 483.68 909.965C481.561 909.729 475.44 911.142 475.44 913.496C475.44 915.144 474.852 917.263 473.557 917.263C472.38 917.263 471.556 915.85 471.556 913.261C471.556 911.73 468.613 910.318 465.082 910.082C445.306 909.847 442.834 885.245 449.897 865.47C450.839 862.527 452.84 858.643 458.372 858.525ZM464.375 865.47C464.14 869.001 467.436 873.71 472.38 873.121C477.795 872.415 478.972 870.414 478.972 866.058C478.972 860.761 477.088 858.407 469.79 858.643C467.318 858.643 464.258 861.35 464.375 865.47ZM509.143 853.816C509.143 856.524 511.732 857.583 513.733 857.583C515.617 857.583 517.853 855.818 517.853 854.052C517.853 851.227 521.855 850.05 525.504 850.05C531.037 850.05 533.98 853.581 533.98 857.583C533.98 860.761 530.448 865.117 525.622 865.117C518.677 865.117 515.028 869.119 515.028 871.944V889.483C515.028 892.073 514.793 895.486 512.792 895.486C511.026 895.486 509.378 897.134 509.378 899.018C509.378 900.783 512.321 903.02 515.146 903.02H519.972C522.915 903.02 525.504 904.55 525.504 906.904C525.504 908.435 524.445 909.847 520.678 909.847H498.666C495.959 909.847 492.781 909.376 492.781 906.904C492.781 905.021 494.899 903.02 497.607 903.02C500.079 903.02 501.491 899.018 501.491 895.957V871.473C501.491 868.295 499.255 865.234 496.901 865.234C494.193 865.234 493.016 863.469 493.016 861.468C493.016 859.349 494.429 857.583 497.136 857.583C499.726 857.583 501.491 856.053 501.491 853.816C501.491 848.519 509.143 848.755 509.143 853.816ZM209.346 970.649H263.995C267.525 970.649 269.715 973.448 269.715 977.343C269.715 987.81 276.288 979.534 276.288 990.245C276.288 993.166 276.044 996.695 272.88 996.695C268.011 996.695 271.298 990.366 266.673 990.366C261.317 990.366 264.603 984.037 259.978 984.037C254.867 984.037 259.005 977.1 251.093 977.1H234.419C232.593 977.1 230.037 978.925 230.037 980.995V1004.24C230.037 1007.53 232.228 1010.57 234.906 1010.57H244.278C247.564 1010.57 249.998 1006.55 249.998 1003.51C249.998 999.13 250.485 997.06 253.649 997.06C256.084 997.06 256.57 998.521 256.57 1002.9V1023.11C256.57 1025.78 256.084 1029.8 253.528 1029.8C250.972 1029.8 250.363 1027.61 250.363 1024.08C250.363 1020.19 246.955 1016.66 244.156 1016.66H234.541C232.228 1016.66 230.403 1019.21 230.403 1021.4V1046.6C230.403 1048.18 231.985 1049.88 233.81 1049.88H259.37C265.455 1049.88 260.952 1043.19 266.551 1043.19C271.906 1043.19 267.768 1036.37 273.123 1036.37C275.314 1036.37 276.288 1038.93 276.288 1041.36V1051.71C276.288 1054.63 275.557 1055.85 272.15 1055.85H209.103C205.33 1055.85 203.991 1055.12 203.991 1053.41C203.991 1050.74 204.6 1049.88 209.59 1049.88C215.675 1049.88 217.136 1046.6 217.136 1044.41V983.916C217.136 979.899 215.432 976.978 209.59 976.978C206.304 976.978 203.869 976.735 203.869 974.179C203.869 971.744 205.695 970.649 209.346 970.649ZM283.015 994.991H300.663C303.706 994.991 307.357 996.817 307.357 998.764C307.357 1000.35 306.384 1002.42 303.828 1002.42C301.637 1002.42 299.568 1006.8 299.568 1009.72V1019.46C299.568 1023.59 302.611 1025.91 304.193 1025.91C305.653 1025.91 307.114 1027.37 307.114 1029.56C307.114 1031.14 308.453 1033.45 310.887 1033.45C313.686 1033.45 315.147 1028.46 315.147 1026.76V1000.71C315.147 998.278 316.242 994.991 321.111 994.991H329.631C335.351 994.991 338.272 997.791 338.272 1000.35C338.272 1001.81 336.69 1002.66 334.742 1002.66C332.552 1002.66 330.604 1006.19 330.604 1008.99V1010.69C330.604 1012.4 329.874 1018.24 326.466 1018.24C324.032 1018.24 322.571 1023.72 322.571 1024.81V1027.61C322.571 1029.8 321.233 1033.45 319.407 1033.45C316.607 1033.45 315.147 1037.83 315.147 1040.27V1050C315.147 1053.9 310.887 1056.7 307.114 1056.7C303.341 1056.7 299.446 1053.78 299.568 1050V1047.45C299.568 1045.01 297.134 1041.24 295.551 1041.24C293.482 1041.24 291.9 1037.71 291.9 1035.16V1024.81C291.9 1023.59 290.44 1018.24 288.37 1018.24C285.814 1018.24 284.111 1014.34 284.111 1011.54V1009.72C284.111 1008.5 283.137 1002.66 280.216 1002.66C278.025 1002.66 276.321 1001.08 276.321 999.13C276.321 996.939 278.755 994.991 283.015 994.991ZM349.57 1002.78C351.883 1003.02 355.778 1001.32 355.778 999.008C355.778 996.33 360.89 994.991 364.784 994.991C370.87 994.991 376.103 997.547 378.173 999.251C380.607 1001.32 386.327 1005.82 386.084 1019.33C386.084 1023.11 383.893 1025.42 379.633 1025.42C371.357 1025.42 356.143 1025.3 354.439 1025.66C349.935 1026.03 348.232 1027.73 348.475 1030.9C349.57 1041 354.561 1047.57 360.646 1048.06C365.028 1048.54 369.288 1048.3 371.844 1047.57C378.659 1045.5 375.982 1043.8 380.363 1041.49C383.284 1040.02 384.745 1041 385.475 1043.31C385.84 1044.77 386.449 1047.21 386.327 1048.79C385.84 1053.17 383.284 1056.33 375.738 1055.97C373.548 1055.73 367.219 1057.19 367.219 1059.62C367.219 1061.32 366.61 1063.51 365.271 1063.51C364.054 1063.51 363.202 1062.05 363.202 1059.38C363.202 1057.79 360.159 1056.33 356.508 1056.09C336.06 1055.85 333.504 1030.41 340.807 1009.96C341.781 1006.92 343.85 1002.9 349.57 1002.78ZM355.778 1009.96C355.534 1013.61 358.942 1018.48 364.054 1017.87C369.653 1017.14 370.87 1015.07 370.87 1010.57C370.87 1005.09 368.922 1002.66 361.376 1002.9C358.82 1002.9 355.656 1005.7 355.778 1009.96ZM400.605 994.87C402.431 994.991 402.553 997.426 402.553 999.982C402.675 1003.51 408.638 1002.9 410.707 1000.22C412.898 996.695 416.063 994.87 421.418 994.87C434.928 994.991 441.257 1014.71 441.257 1028.58C441.257 1038.69 438.945 1041.12 436.997 1041.12C435.415 1041.12 434.32 1042.82 434.32 1044.77C434.32 1046.11 437.362 1049.03 439.918 1048.91H444.178C446.369 1048.91 448.438 1049.64 448.438 1051.95C448.438 1054.02 445.517 1055.85 442.109 1055.85H426.53C422.757 1056.09 420.201 1054.63 420.201 1052.56C420.201 1050.61 420.931 1048.54 423.487 1048.54C426.165 1048.54 427.139 1041.12 427.139 1035.76V1022.13C427.139 1011.18 422.392 1002.05 417.28 1002.17C409.49 1002.17 406.204 1009.84 405.839 1022.13V1035.76C405.839 1040.27 406.691 1049.15 410.707 1049.15C412.777 1049.15 412.898 1050.25 412.898 1051.95C412.898 1054.14 410.221 1055.85 408.152 1055.73L390.869 1055.85C385.635 1055.85 385.148 1054.14 385.148 1051.95C385.148 1050.98 385.635 1048.91 387.704 1048.91C389.53 1048.91 391.842 1045.26 391.842 1036.37C391.964 1024.69 392.329 1013.13 390.26 1004.61C389.53 1000.96 391.842 994.991 400.605 994.87ZM467.616 973.083C471.267 973.083 471.389 977.1 471.389 982.698C471.389 988.784 471.754 991.583 478.083 991.583C486.481 991.583 488.307 994.626 488.307 998.886C488.307 1002.17 486.968 1004.73 480.761 1004.73H470.172C466.764 1004.73 462.991 1006.31 462.991 1008.99C462.991 1010.57 462.991 1013 465.182 1013C467.86 1013 469.929 1016.41 469.929 1021.16V1039.78C469.929 1042.82 475.406 1047.21 479.422 1047.21C485.629 1047.21 488.551 1047.45 488.551 1051.34C488.551 1053.53 487.942 1055.85 482.83 1055.85H461.896C458.853 1055.85 457.027 1053.53 457.027 1049.88V1010.94C457.027 1005.22 453.498 1004.97 450.82 1004.97C448.142 1004.97 445.952 1003.02 445.952 998.886C445.952 993.774 447.655 991.583 450.942 991.583C460.313 991.583 453.863 982.698 460.192 982.698C466.642 982.698 461.287 973.083 467.616 973.083Z" fill="black"/>
<line x1="682" y1="1046" x2="682" y2="1.43132e-09" stroke="black" stroke-width="6"/>
<line x1="3" y1="1044" x2="3" y2="-0.000488281" stroke="black" stroke-width="6"/>
<line x1="1.8774" y1="1041.66" x2="345.877" y2="1317.66" stroke="black" stroke-width="6"/>
<line x1="682.896" y1="1043.32" x2="346.896" y2="1317.32" stroke="black" stroke-width="6"/>
<rect x="344" y="1316" width="5" height="4" fill="black"/>
</svg>
