<svg width="679" height="1316" viewBox="0 0 679 1316" fill="none" xmlns="http://www.w3.org/2000/svg">
<path fill-rule="evenodd" clip-rule="evenodd" d="M679 0H0V1044.47L336.66 1316H342.34L679 1044.47V0Z" fill="white"/>
<path d="M277.058 722.884C259.353 722.884 245 737.237 245 754.942C245 772.647 259.353 787 277.058 787C294.763 787 309.116 772.647 309.116 754.942C309.116 737.237 294.763 722.884 277.058 722.884ZM277.058 722.884C276.72 716.12 277.104 723.8 277.058 722.884ZM277.058 722.884L277.058 574.043M277.058 722.884C278.805 692.002 289.567 674.254 304.078 661.458C339.775 629.98 398.162 628.468 400.862 535.116M400.862 535.116C418.498 535.034 432.768 520.712 432.768 503.058C432.768 485.353 418.415 471 400.71 471C383.005 471 368.652 485.353 368.652 503.058C368.652 520.763 383.005 535.116 400.71 535.116C400.761 535.116 400.812 535.116 400.862 535.116Z" stroke="black" stroke-width="6" stroke-linecap="round" stroke-linejoin="bevel"/>
<path d="M171.413 99.402H207.718C213.277 99.402 218.836 100.618 218.836 104.092C218.836 107.045 213.624 108.609 210.15 108.609C204.765 108.609 200.422 111.562 200.422 116.599V149.778C200.422 153.774 202.333 155.337 205.807 155.337H248.54C254.968 155.337 255.663 152.384 255.663 150.126V117.468C255.663 113.994 254.099 108.435 249.93 108.435C247.846 108.435 246.282 106.003 246.282 104.092C246.282 99.9232 251.841 99.402 256.705 99.402H283.978C288.32 99.402 292.142 101.66 292.142 104.266C292.142 107.566 287.799 108.782 283.456 108.782C277.029 108.782 273.902 112.952 273.902 117.294V202.413C273.902 207.451 277.377 211.272 283.109 211.272C287.278 211.272 292.142 211.967 292.142 215.962C292.142 218.568 287.452 221 283.109 221H242.634C239.507 221 236.902 218.915 236.902 215.962C236.902 212.836 241.939 211.272 246.63 211.272C250.625 211.272 255.663 206.756 255.663 202.587V170.276C255.663 165.933 253.231 164.196 248.54 164.196H205.981C201.117 164.196 200.075 167.323 200.075 170.971V198.939C200.075 203.108 200.944 211.272 204.765 211.272C207.197 211.272 209.282 212.836 209.282 215.441C209.282 218.915 204.07 221 199.728 221H174.018C169.676 221 163.769 219.263 163.769 215.962C163.769 212.488 168.286 211.272 172.629 211.272C180.619 211.272 182.356 204.671 182.356 199.112V119.031C182.356 112.257 178.708 108.782 172.802 108.782C168.807 108.782 163.596 107.566 163.596 103.919C163.596 101.139 168.286 99.402 171.413 99.402ZM299.925 191.469C304.615 185.91 310.348 190.774 313.301 185.042C313.301 181.046 315.385 178.093 320.944 178.093C332.235 177.746 334.146 174.445 336.231 172.187C338.663 170.276 342.484 158.464 337.794 149.605C336.926 146.304 320.944 143.004 315.907 148.215C312.432 151.863 315.385 160.201 311.564 163.154C310.869 165.239 305.31 166.976 301.315 166.628C298.709 166.628 295.582 166.281 293.671 164.544C292.282 163.675 291.587 161.417 292.629 159.332C293.324 157.769 294.54 156.032 298.014 156.032C300.62 154.816 302.531 154.816 302.531 150.821C302.531 148.215 303.92 146.304 308.263 145.609C310.695 145.088 313.301 142.83 313.301 140.224C313.475 137.792 315.733 135.881 320.944 135.187C323.029 134.665 336.231 134.492 338.315 135.187C342.137 136.055 345.437 137.619 345.437 140.398C345.437 143.004 348.043 145.436 349.78 145.609C354.47 145.609 356.208 150.299 356.208 155.163V201.023C356.208 203.803 356.902 206.929 359.682 209.014C363.677 210.577 366.63 211.62 366.63 214.399C366.804 216.136 364.198 220.131 359.334 220.131H314.864C309.306 220.131 303.92 219.61 300.446 214.746C298.188 210.925 295.235 198.939 299.925 191.469ZM313.648 199.112C313.648 208.319 319.554 209.882 325.287 209.882C330.846 209.882 339.531 207.972 339.531 199.286C339.531 192.338 338.142 188.516 326.85 188.516C317.991 188.516 313.648 190.079 313.648 199.112ZM388.996 138.313C388.996 142.309 392.817 143.872 395.77 143.872C398.55 143.872 401.85 141.266 401.85 138.661C401.85 134.492 407.756 132.755 413.142 132.755C421.306 132.755 425.649 137.966 425.649 143.872C425.649 148.562 420.437 154.99 413.315 154.99C403.066 154.99 397.681 160.896 397.681 165.065V190.948C397.681 194.77 397.334 199.807 394.381 199.807C391.775 199.807 389.343 202.239 389.343 205.019C389.343 207.624 393.686 210.925 397.855 210.925H404.977C409.32 210.925 413.142 213.183 413.142 216.657C413.142 218.915 411.578 221 406.019 221H373.535C369.54 221 364.85 220.305 364.85 216.657C364.85 213.878 367.977 210.925 371.972 210.925C375.62 210.925 377.704 205.019 377.704 200.502V164.37C377.704 159.68 374.404 155.163 370.93 155.163C366.934 155.163 365.197 152.558 365.197 149.605C365.197 146.478 367.282 143.872 371.277 143.872C375.099 143.872 377.704 141.614 377.704 138.313C377.704 130.496 388.996 130.844 388.996 138.313ZM453.903 135.013H479.786C483.434 135.013 487.082 131.191 486.734 126.848V99.5757C486.734 97.6649 483.607 92.1061 481.175 92.1061C478.57 92.1061 476.138 89.6742 476.138 87.0685C476.138 84.8103 479.265 81.1623 484.997 81.1623H498.72C502.889 81.1623 507.579 83.4206 507.753 90.369C507.753 94.017 507.579 97.6649 507.579 101.313C507.579 102.703 507.232 113.473 502.542 113.82C499.241 114.167 496.462 119.553 496.809 126.154L497.157 191.295C497.157 194.075 499.415 198.765 502.542 199.112C504.974 199.112 507.753 201.023 507.753 204.497C507.753 206.929 510.359 210.056 512.791 210.056C516.612 210.056 517.828 211.62 517.828 214.573C517.828 216.484 515.223 220.479 503.237 220.479H444.001C436.705 220.479 434.273 217.873 434.1 214.92C434.1 212.662 431.494 210.056 429.583 210.056C426.109 210.056 423.851 205.54 423.851 201.544V164.023C423.851 160.375 425.935 156.032 429.236 156.032C431.146 156.032 434.273 154.469 434.273 150.647C434.273 147.694 436.01 145.262 439.311 145.262C441.048 145.262 444.349 143.698 444.349 141.266C444.349 137.792 448.518 135.013 453.903 135.013ZM444.87 165.239V190.079C444.87 197.028 448.865 198.939 450.428 198.939C452.86 198.939 454.945 201.197 454.945 203.976C454.945 207.624 461.199 210.056 464.846 210.056H478.917C483.955 210.056 486.56 206.408 486.56 201.544V166.281C486.56 162.98 485.171 156.727 481.349 156.553C477.527 156.379 476.138 153.947 476.138 151.342C476.138 147.694 472.837 146.999 470.753 146.304C468.842 145.783 464.325 145.609 460.677 146.304C458.072 146.999 455.292 149.257 455.292 150.821C455.292 152.037 454.076 156.727 450.428 156.727C447.302 156.727 444.87 161.243 444.87 165.239ZM179.878 307.402H256.832C265.518 307.402 266.56 312.44 266.56 317.304C266.56 331.374 275.767 327.379 275.767 338.496C275.767 343.708 273.335 345.097 270.382 345.097C259.612 345.097 257.354 341.102 257.354 334.848C257.354 329.811 254.922 326.337 252.316 326.337C250.231 326.337 247.799 324.599 247.799 322.167C247.799 318.52 243.804 317.13 240.677 317.13H214.621C211.494 317.13 210.104 319.909 210.104 323.383V365.422C210.104 368.896 213.926 373.239 217.4 373.239H222.959C225.391 373.239 229.039 370.459 229.039 368.375C229.039 365.422 230.949 364.032 233.381 364.032C235.813 364.032 238.419 361.6 238.419 359.515C238.419 355.867 240.33 354.478 242.936 354.478C247.973 354.478 247.799 358.994 247.799 363.685V384.356C247.799 387.83 247.452 392.521 242.588 392.521C240.33 392.521 238.419 390.089 238.419 387.83C238.419 385.398 234.945 382.619 231.297 382.619H217.4C212.362 382.619 210.104 386.962 210.104 390.783V412.324C210.104 416.319 213.231 420.141 222.611 420.141C225.912 420.141 228.865 421.704 228.865 425.005C228.865 427.437 226.086 429 222.959 429H183.179C179.183 429 178.489 426.568 178.489 424.136C178.489 420.662 181.963 420.141 184.742 420.141C188.043 420.141 191.343 415.798 191.343 411.455V325.642C191.343 317.304 184.916 316.782 180.399 316.782C176.925 316.782 172.756 314.872 172.756 312.266C172.756 309.139 176.057 307.402 179.878 307.402ZM324.114 342.144C355.904 342.144 362.678 364.727 362.678 387.483C362.678 398.774 360.768 408.328 356.946 408.328C355.035 408.328 352.082 412.845 352.082 417.535C352.082 425.526 345.481 427.263 339.227 429C333.842 430.042 308.828 429.869 305.875 429C301.185 427.958 297.71 426.047 297.71 423.615C297.71 422.225 295.626 419.62 293.889 419.62C290.414 419.62 284.508 414.756 284.508 410.239C284.161 406.765 283.292 403.117 281.381 399.99C279.297 395.995 275.823 397.037 275.823 390.436V383.835C275.823 382.445 276.691 375.149 281.208 375.149C282.945 375.149 286.593 372.196 286.593 368.375V363.337C286.593 359.515 289.025 353.609 298.405 353.609C302.922 353.783 308.828 351.351 308.828 347.877C308.828 345.271 312.476 342.144 324.114 342.144ZM297.71 380.361V392.868C297.884 412.15 307.264 418.925 317.861 418.925H326.199C334.537 418.925 341.833 406.765 341.833 395.995V381.924C341.833 364.206 335.232 353.609 321.509 353.609H316.819C306.396 353.609 298.405 357.778 297.71 380.361ZM385.094 346.313C385.094 350.309 388.916 351.872 391.869 351.872C394.648 351.872 397.949 349.266 397.949 346.661C397.949 342.492 403.855 340.755 409.24 340.755C417.404 340.755 421.747 345.966 421.747 351.872C421.747 356.562 416.536 362.99 409.414 362.99C399.165 362.99 393.779 368.896 393.779 373.065V398.948C393.779 402.77 393.432 407.807 390.479 407.807C387.873 407.807 385.441 410.239 385.441 413.019C385.441 415.624 389.784 418.925 393.953 418.925H401.075C405.418 418.925 409.24 421.183 409.24 424.657C409.24 426.915 407.676 429 402.118 429H369.634C365.638 429 360.948 428.305 360.948 424.657C360.948 421.878 364.075 418.925 368.07 418.925C371.718 418.925 373.803 413.019 373.803 408.502V372.37C373.803 367.68 370.502 363.163 367.028 363.163C363.033 363.163 361.295 360.558 361.295 357.605C361.295 354.478 363.38 351.872 367.375 351.872C371.197 351.872 373.803 349.614 373.803 346.313C373.803 338.496 385.094 338.844 385.094 346.313ZM439.231 288.641C445.658 288.641 448.264 294.895 448.264 308.444V346.661C448.264 352.393 448.611 364.206 443.921 364.206C438.015 364.206 438.71 374.628 444.442 374.628H457.297C463.898 374.628 469.63 362.816 469.457 356.041C469.457 343.013 476.405 342.144 488.565 342.144C497.598 342.144 498.293 345.792 498.293 355.173C498.293 361.947 494.124 364.206 486.654 364.206C476.926 363.858 469.457 374.107 469.457 383.835C469.457 400.164 484.048 418.23 496.729 418.23C502.288 418.23 506.978 418.23 506.978 423.268C506.978 425.873 505.067 429 500.204 429H477.621C468.935 429 469.457 419.62 469.457 415.277C469.457 410.413 467.025 403.638 462.856 400.511C459.555 398.427 451.564 394.431 444.963 398.253C441.836 399.816 439.752 403.638 439.752 408.849C439.752 413.019 444.963 418.23 450.175 418.23C453.823 418.23 457.297 419.272 457.297 423.789C457.297 427.61 453.996 429 450.175 429H428.287C424.813 429 420.296 427.61 420.296 423.268C420.296 421.009 421.86 418.577 424.292 418.577C427.418 418.577 430.024 408.849 430.024 403.291V324.426C430.024 319.736 429.156 310.008 424.813 310.181C421.165 310.181 419.949 307.576 419.949 304.275C419.949 301.67 421.86 299.411 425.334 299.411C433.846 299.411 425.508 288.641 439.231 288.641Z" fill="black"/>
<path d="M164.776 829.449H170.897C182.785 829.449 183.963 834.628 183.963 842.28C183.963 852.05 189.26 845.105 189.26 854.404C189.26 866.528 194.792 855.699 194.792 871.237C194.792 886.304 200.089 877.593 200.089 883.596C200.089 887.481 205.622 890.07 205.622 880.889C205.622 869.824 211.036 878.417 211.036 867.941C211.036 856.758 216.098 865.94 216.098 854.639C216.098 845.458 221.866 853.109 221.866 839.455C221.866 833.687 225.162 829.449 233.284 829.449C238.934 829.449 243.407 829.684 243.407 832.627C243.407 834.158 242.465 835.335 241.053 835.335C238.816 835.335 235.991 838.513 235.991 844.398V895.014C235.991 905.137 239.64 906.432 244.584 906.432C247.056 906.432 248.822 906.785 248.822 908.669C248.822 910.788 247.527 911.847 245.761 911.847H219.041C217.628 911.847 216.333 911.023 216.333 909.611C216.333 907.374 217.981 906.785 219.629 906.785C225.632 906.785 227.163 900.782 227.163 895.956V858.641C227.163 855.463 226.692 848.283 224.573 848.283C223.043 848.283 221.748 851.108 221.748 855.699C221.748 863.585 216.216 858.641 216.216 867.705C216.216 878.064 211.154 870.295 211.154 880.771C211.154 890.424 205.386 883.243 205.386 895.367V899.605C205.386 903.136 205.151 905.373 203.503 905.373C202.326 905.373 201.148 906.668 201.148 908.433C201.148 909.846 200.795 911.612 198.677 911.612C195.969 911.612 195.851 904.784 195.851 902.077C195.851 899.605 194.557 896.309 193.144 896.309C191.025 896.309 190.319 891.13 190.319 888.54V883.361C190.319 880.654 189.26 877.24 187.847 877.24C185.493 877.24 184.904 873.12 184.904 870.295C184.904 867.941 184.316 864.174 182.55 864.174C181.02 864.174 178.783 863.821 178.783 861.231V855.699C178.783 853.462 177.959 848.518 176.076 848.518C174.546 848.518 173.133 853.462 173.133 857.464V895.956C173.133 899.958 175.37 906.55 179.372 906.55C183.374 906.55 183.963 907.374 183.963 909.493C183.963 911.023 183.374 911.847 180.196 911.847H161.127C157.478 911.847 157.124 911.023 157.124 909.493C157.124 907.374 158.655 906.668 162.304 906.668C165.482 906.668 167.836 899.958 167.836 895.132V845.458C167.836 841.573 166.188 835.688 161.715 835.688C159.832 835.688 157.124 834.158 157.124 832.274C157.124 830.155 161.833 829.449 164.776 829.449ZM260.93 860.525C263.167 860.76 266.934 859.112 266.934 856.876C266.934 854.286 271.877 852.991 275.644 852.991C281.53 852.991 286.591 855.463 288.592 857.111C290.947 859.112 296.479 863.468 296.244 876.534C296.244 880.183 294.125 882.419 290.005 882.419C282.001 882.419 267.287 882.301 265.639 882.655C261.283 883.008 259.635 884.656 259.871 887.716C260.93 897.486 265.756 903.843 271.642 904.314C275.88 904.784 279.999 904.549 282.471 903.843C289.063 901.842 286.474 900.194 290.711 897.957C293.536 896.545 294.949 897.486 295.655 899.723C296.008 901.135 296.597 903.49 296.479 905.02C296.008 909.257 293.536 912.318 286.238 911.965C284.119 911.729 277.998 913.142 277.998 915.496C277.998 917.144 277.41 919.263 276.115 919.263C274.938 919.263 274.114 917.85 274.114 915.261C274.114 913.73 271.171 912.318 267.64 912.082C247.864 911.847 245.392 887.245 252.455 867.47C253.397 864.527 255.398 860.643 260.93 860.525ZM266.934 867.47C266.698 871.001 269.994 875.71 274.938 875.121C280.353 874.415 281.53 872.414 281.53 868.058C281.53 862.761 279.646 860.407 272.348 860.643C269.876 860.643 266.816 863.35 266.934 867.47ZM304.873 851.814C306.521 851.814 308.405 853.109 308.405 855.11C308.405 856.523 308.052 857.7 310.641 857.7C316.998 857.7 310.406 852.991 324.413 852.991C335.831 852.991 331.712 860.054 340.658 859.936C349.251 859.936 339.951 852.991 355.96 852.991C366.672 852.991 375.147 861.349 375.147 876.416V902.195C375.147 904.549 377.737 905.255 379.62 905.255C382.327 905.255 383.622 907.139 383.622 908.669C383.622 910.199 382.327 911.847 380.326 911.847H362.67C360.315 911.847 357.373 910.67 357.373 908.551C357.373 907.492 358.785 905.255 362.199 905.255C365.612 905.255 366.907 900.664 366.907 893.249V876.298C366.907 867.47 360.198 863.35 355.96 863.35C346.661 863.468 342.659 873.12 342.659 880.771V895.132C342.659 902.195 345.013 905.608 348.427 905.608C350.899 905.608 351.722 907.021 351.722 908.551C351.722 910.199 350.781 911.847 348.427 911.847H329.828C327.474 911.847 326.768 910.435 326.768 908.669C326.768 907.139 327.945 905.373 329.828 905.373C333.713 905.373 333.83 897.722 333.83 891.954V878.77C333.83 873.591 329.24 863.468 319.94 863.468C312.642 863.468 310.523 873.12 310.523 880.183V894.426C310.523 897.722 310.994 905.608 313.937 905.608C315.938 905.608 316.762 906.668 316.762 908.787C316.762 910.435 315.585 911.847 313.231 911.847H298.752C296.751 911.847 295.339 910.199 295.339 908.787C295.339 907.021 296.398 905.491 298.517 905.491C301.46 905.491 302.637 896.78 302.637 891.954V877.475C302.637 873.826 301.224 867.47 298.635 867.47C296.987 867.47 295.456 865.94 295.456 863.821C295.456 862.055 296.869 860.054 299.341 860.054C301.46 860.054 301.46 856.287 301.46 854.639C301.46 852.991 302.755 851.814 304.873 851.814ZM384.804 831.45C381.861 831.45 379.742 827.683 382.803 824.27C383.038 823.21 386.687 822.269 388.335 820.738C390.336 819.208 391.514 817.913 394.927 817.56C398.458 816.972 402.343 818.502 402.696 822.504C402.932 824.27 402.696 839.572 402.932 847.93C402.932 850.637 404.815 852.991 408.935 852.991H417.175C437.303 852.756 440.011 869.471 440.952 877.24C441.305 879.123 441.776 885.009 440.952 888.069C439.657 892.542 436.008 895.25 435.538 901.606C434.949 906.197 431.535 908.669 425.297 911.258C416.586 914.319 403.756 913.142 393.279 912.082C388.571 911.141 388.571 909.022 388.571 904.314V837.571C388.453 836.041 387.511 831.45 384.804 831.45ZM402.696 877.946L402.814 897.133C403.049 900.9 405.05 902.783 408.111 902.783C418.469 902.783 422.236 902.901 424.237 901.724C426.356 900.429 427.18 898.663 427.769 896.191C428.239 894.308 430.358 893.719 430.829 890.659C431.182 887.128 431.3 885.951 431.065 882.184C430.947 880.771 430.005 877.358 429.417 876.416C428.004 874.65 425.65 872.649 425.179 870.059C424.944 868.882 422.354 867.234 420.353 867.234C418.469 867.234 416.939 865.351 416.821 862.761C416.704 861.349 413.761 858.406 408.935 861.584C407.405 862.644 404.933 865.351 401.99 866.175C399.4 866.881 398.576 872.296 400.342 873.826C402.343 875.003 402.696 876.063 402.696 877.946ZM452.372 860.525C454.609 860.76 458.375 859.112 458.375 856.876C458.375 854.286 463.319 852.991 467.086 852.991C472.972 852.991 478.033 855.463 480.034 857.111C482.389 859.112 487.921 863.468 487.686 876.534C487.686 880.183 485.567 882.419 481.447 882.419C473.443 882.419 458.729 882.301 457.081 882.655C452.725 883.008 451.077 884.656 451.313 887.716C452.372 897.486 457.198 903.843 463.084 904.314C467.322 904.784 471.441 904.549 473.913 903.843C480.505 901.842 477.916 900.194 482.153 897.957C484.978 896.545 486.391 897.486 487.097 899.723C487.45 901.135 488.039 903.49 487.921 905.02C487.45 909.257 484.978 912.318 477.68 911.965C475.561 911.729 469.44 913.142 469.44 915.496C469.44 917.144 468.852 919.263 467.557 919.263C466.38 919.263 465.556 917.85 465.556 915.261C465.556 913.73 462.613 912.318 459.082 912.082C439.306 911.847 436.834 887.245 443.897 867.47C444.839 864.527 446.84 860.643 452.372 860.525ZM458.375 867.47C458.14 871.001 461.436 875.71 466.38 875.121C471.795 874.415 472.972 872.414 472.972 868.058C472.972 862.761 471.088 860.407 463.79 860.643C461.318 860.643 458.258 863.35 458.375 867.47ZM503.143 855.816C503.143 858.524 505.732 859.583 507.733 859.583C509.617 859.583 511.853 857.818 511.853 856.052C511.853 853.227 515.855 852.05 519.504 852.05C525.037 852.05 527.98 855.581 527.98 859.583C527.98 862.761 524.448 867.117 519.622 867.117C512.677 867.117 509.028 871.119 509.028 873.944V891.483C509.028 894.073 508.793 897.486 506.792 897.486C505.026 897.486 503.378 899.134 503.378 901.018C503.378 902.783 506.321 905.02 509.146 905.02H513.972C516.915 905.02 519.504 906.55 519.504 908.904C519.504 910.435 518.445 911.847 514.678 911.847H492.666C489.959 911.847 486.781 911.376 486.781 908.904C486.781 907.021 488.899 905.02 491.607 905.02C494.079 905.02 495.491 901.018 495.491 897.957V873.473C495.491 870.295 493.255 867.234 490.901 867.234C488.193 867.234 487.016 865.469 487.016 863.468C487.016 861.349 488.429 859.583 491.136 859.583C493.726 859.583 495.491 858.053 495.491 855.816C495.491 850.519 503.143 850.755 503.143 855.816ZM207.805 970.449H260.657C264.071 970.449 266.19 973.156 266.19 976.923C266.19 987.046 272.546 979.042 272.546 989.401C272.546 992.226 272.311 995.639 269.25 995.639C264.542 995.639 267.72 989.518 263.247 989.518C258.067 989.518 261.246 983.397 256.773 983.397C251.829 983.397 255.831 976.688 248.18 976.688H232.053C230.288 976.688 227.816 978.453 227.816 980.455V1002.94C227.816 1006.12 229.934 1009.06 232.524 1009.06H241.588C244.766 1009.06 247.12 1005.17 247.12 1002.23C247.12 997.994 247.591 995.992 250.652 995.992C253.006 995.992 253.477 997.405 253.477 1001.64V1021.18C253.477 1023.77 253.006 1027.66 250.534 1027.66C248.062 1027.66 247.473 1025.54 247.473 1022.12C247.473 1018.36 244.177 1014.94 241.47 1014.94H232.171C229.934 1014.94 228.169 1017.42 228.169 1019.53V1043.9C228.169 1045.43 229.699 1047.08 231.465 1047.08H256.184C262.07 1047.08 257.714 1040.61 263.129 1040.61C268.308 1040.61 264.306 1034.01 269.485 1034.01C271.604 1034.01 272.546 1036.49 272.546 1038.84V1048.84C272.546 1051.67 271.84 1052.85 268.544 1052.85H207.569C203.92 1052.85 202.625 1052.14 202.625 1050.49C202.625 1047.9 203.214 1047.08 208.04 1047.08C213.926 1047.08 215.338 1043.9 215.338 1041.78V983.28C215.338 979.395 213.69 976.57 208.04 976.57C204.862 976.57 202.508 976.335 202.508 973.863C202.508 971.508 204.273 970.449 207.805 970.449ZM279.052 993.991H296.12C299.063 993.991 302.595 995.757 302.595 997.64C302.595 999.171 301.653 1001.17 299.181 1001.17C297.062 1001.17 295.061 1005.41 295.061 1008.23V1017.65C295.061 1021.65 298.004 1023.89 299.534 1023.89C300.947 1023.89 302.359 1025.3 302.359 1027.42C302.359 1028.95 303.654 1031.19 306.008 1031.19C308.716 1031.19 310.128 1026.36 310.128 1024.71V999.524C310.128 997.17 311.187 993.991 315.896 993.991H324.136C329.668 993.991 332.493 996.699 332.493 999.171C332.493 1000.58 330.963 1001.41 329.08 1001.41C326.961 1001.41 325.077 1004.82 325.077 1007.53V1009.18C325.077 1010.82 324.371 1016.47 321.075 1016.47C318.721 1016.47 317.308 1021.77 317.308 1022.83V1025.54C317.308 1027.66 316.014 1031.19 314.248 1031.19C311.541 1031.19 310.128 1035.43 310.128 1037.78V1047.2C310.128 1050.96 306.008 1053.67 302.359 1053.67C298.71 1053.67 294.943 1050.85 295.061 1047.2V1044.72C295.061 1042.37 292.707 1038.72 291.177 1038.72C289.175 1038.72 287.645 1035.31 287.645 1032.84V1022.83C287.645 1021.65 286.233 1016.47 284.232 1016.47C281.76 1016.47 280.112 1012.71 280.112 1010V1008.23C280.112 1007.06 279.17 1001.41 276.345 1001.41C274.226 1001.41 272.578 999.877 272.578 997.994C272.578 995.875 274.932 993.991 279.052 993.991ZM343.42 1001.52C345.657 1001.76 349.423 1000.11 349.423 997.876C349.423 995.286 354.367 993.991 358.134 993.991C364.02 993.991 369.081 996.463 371.082 998.111C373.437 1000.11 378.969 1004.47 378.734 1017.53C378.734 1021.18 376.615 1023.42 372.495 1023.42C364.49 1023.42 349.777 1023.3 348.129 1023.65C343.773 1024.01 342.125 1025.66 342.361 1028.72C343.42 1038.49 348.246 1044.84 354.132 1045.31C358.369 1045.78 362.489 1045.55 364.961 1044.84C371.553 1042.84 368.964 1041.19 373.201 1038.96C376.026 1037.54 377.439 1038.49 378.145 1040.72C378.498 1042.14 379.087 1044.49 378.969 1046.02C378.498 1050.26 376.026 1053.32 368.728 1052.96C366.609 1052.73 360.488 1054.14 360.488 1056.5C360.488 1058.14 359.9 1060.26 358.605 1060.26C357.428 1060.26 356.604 1058.85 356.604 1056.26C356.604 1054.73 353.661 1053.32 350.13 1053.08C330.354 1052.85 327.882 1028.25 334.945 1008.47C335.887 1005.53 337.888 1001.64 343.42 1001.52ZM349.423 1008.47C349.188 1012 352.484 1016.71 357.428 1016.12C362.843 1015.41 364.02 1013.41 364.02 1009.06C364.02 1003.76 362.136 1001.41 354.838 1001.64C352.366 1001.64 349.306 1004.35 349.423 1008.47ZM392.778 993.874C394.544 993.991 394.661 996.346 394.661 998.818C394.779 1002.23 400.547 1001.64 402.548 999.053C404.667 995.639 407.727 993.874 412.907 993.874C425.973 993.991 432.094 1013.06 432.094 1026.48C432.094 1036.25 429.857 1038.6 427.974 1038.6C426.443 1038.6 425.384 1040.25 425.384 1042.14C425.384 1043.43 428.327 1046.26 430.799 1046.14H434.919C437.037 1046.14 439.039 1046.84 439.039 1049.08C439.039 1051.08 436.214 1052.85 432.918 1052.85H417.851C414.201 1053.08 411.73 1051.67 411.73 1049.67C411.73 1047.79 412.436 1045.78 414.908 1045.78C417.497 1045.78 418.439 1038.6 418.439 1033.42V1020.24C418.439 1009.65 413.848 1000.82 408.904 1000.94C401.371 1000.94 398.193 1008.35 397.84 1020.24V1033.42C397.84 1037.78 398.664 1046.37 402.548 1046.37C404.549 1046.37 404.667 1047.43 404.667 1049.08C404.667 1051.2 402.077 1052.85 400.076 1052.73L383.361 1052.85C378.299 1052.85 377.829 1051.2 377.829 1049.08C377.829 1048.14 378.299 1046.14 380.301 1046.14C382.066 1046.14 384.303 1042.61 384.303 1034.01C384.42 1022.71 384.774 1011.53 382.773 1003.29C382.066 999.759 384.303 993.991 392.778 993.874ZM457.586 972.803C461.118 972.803 461.235 976.688 461.235 982.102C461.235 987.988 461.589 990.695 467.71 990.695C475.832 990.695 477.597 993.638 477.597 997.758C477.597 1000.94 476.303 1003.41 470.299 1003.41H460.058C456.762 1003.41 453.113 1004.94 453.113 1007.53C453.113 1009.06 453.113 1011.41 455.232 1011.41C457.822 1011.41 459.823 1014.71 459.823 1019.3V1037.31C459.823 1040.25 465.12 1044.49 469.004 1044.49C475.008 1044.49 477.833 1044.72 477.833 1048.49C477.833 1050.61 477.244 1052.85 472.3 1052.85H452.054C449.111 1052.85 447.346 1050.61 447.346 1047.08V1009.41C447.346 1003.88 443.932 1003.64 441.342 1003.64C438.753 1003.64 436.634 1001.76 436.634 997.758C436.634 992.814 438.282 990.695 441.46 990.695C450.524 990.695 444.285 982.102 450.406 982.102C456.645 982.102 451.465 972.803 457.586 972.803Z" fill="black"/>
</svg>
